<svg width="453" height="138" viewBox="0 0 453 138" fill="none" xmlns="http://www.w3.org/2000/svg">
<g clip-path="url(#clip0_4448_1911)">
<path d="M433.304 45.3337L422.441 73.7075C421.554 75.9506 420.671 78.1936 419.913 80.4409C418.798 83.7242 417.87 87.0739 417.136 90.4719C416.125 86.911 415.242 83.3452 414.235 79.7795C413.224 76.3481 412.212 72.9162 411.077 69.4847L403.106 45.1997H375.566C375.566 44.936 375.184 38.8637 379.864 37.2819C381.46 36.7855 383.123 36.5621 384.787 36.6206H391.531V21.1826H384.787C379.197 20.8064 373.622 22.1355 368.744 25.0075C366.306 26.7588 364.271 29.0523 362.785 31.7226C361.299 34.3928 360.4 37.3735 360.152 40.4499C359.903 42.0317 359.903 43.6179 359.775 45.204H351.941V59.5875H359.651V115.678H375.441V59.458H389.973L408.163 109.476L396.413 138.001H413.725L451.122 45.3337H433.304Z" fill="white"/>
<path d="M330.613 115.678H346.404V44.9404H330.613V115.678Z" fill="white"/>
<path d="M330.676 37.6099H346.342V22.6948H330.676V37.6099Z" fill="white"/>
<path d="M297.612 43.7514C291.468 43.5201 285.452 45.6225 280.682 49.6681C279.398 50.8768 278.175 52.1535 277.018 53.4928C275.883 52.0476 274.659 50.6804 273.354 49.4001C272.791 48.8412 272.2 48.3133 271.584 47.8183C267.711 45.0691 263.131 43.6048 258.446 43.6174C253.775 43.599 249.22 45.1242 245.432 47.9739C244.189 49.0328 242.402 50.8783 242.274 50.9993L242.149 44.4083H226.984V115.677H242.775V77.5362C242.332 73.0666 243.309 68.5688 245.556 64.7345C246.654 63.1236 248.117 61.8222 249.816 60.9464C251.514 60.0707 253.394 59.6482 255.288 59.7166C256.798 59.6721 258.301 59.9406 259.711 60.5075C261.121 61.0744 262.408 61.9284 263.498 63.0186C265.097 65.0456 266.29 67.3863 267.006 69.9016C267.722 72.4174 267.947 75.0575 267.668 77.6657V115.677H283.459V77.2724C283.711 71.7099 284.217 65.6591 289.153 61.9597C291.232 60.4666 293.704 59.6827 296.228 59.7166C298.999 59.5553 301.728 60.482 303.876 62.3148C306.025 64.148 307.436 66.7536 307.833 69.6181C308.267 71.6977 308.437 73.8282 308.339 75.9545V115.681H324.129V75.6864C324.243 71.7009 323.911 67.7148 323.139 63.8094C321.828 57.868 318.55 52.5991 313.88 48.9301C309.212 45.2611 303.451 43.4273 297.612 43.7514Z" fill="white"/>
<path d="M183.272 116.732C181.257 116.752 179.244 116.597 177.254 116.27C174.219 115.756 171.268 114.8 168.488 113.43C162.45 110.469 157.368 105.74 153.862 99.8204C150.365 93.9209 148.518 87.1207 148.528 80.1856C148.503 75.1847 149.492 70.2348 151.429 65.6595C152.744 62.4574 154.501 59.4729 156.643 56.7994C158.758 54.162 161.221 51.8497 163.958 49.9321C166.685 48.0058 169.666 46.5006 172.807 45.4631C175.989 44.4164 179.305 43.883 182.642 43.8813C185.003 43.8907 187.356 44.1808 189.655 44.7457C193.289 45.5996 196.712 47.2398 199.701 49.5604C201.295 50.922 202.774 52.4228 204.123 54.0463L203.995 44.8062H219.786V115.686H204.749L204.873 105.391C203.323 107.687 201.451 109.727 199.32 111.442C197.053 113.306 194.478 114.721 191.723 115.617C188.974 116.423 186.126 116.799 183.272 116.732ZM184.407 59.3238C179.946 59.2871 175.612 60.8736 172.152 63.8098C169.805 65.8029 167.916 68.3192 166.624 71.1742C165.333 74.0298 164.673 77.1502 164.691 80.3067C164.626 85.7646 166.641 91.0266 170.294 94.9368C173.946 98.8464 178.937 101.085 184.171 101.16C188.396 101.224 192.506 99.7286 195.776 96.9378C198.198 94.9893 200.162 92.491 201.52 89.6328C202.877 86.7741 203.592 83.6303 203.609 80.4409C203.577 77.8688 203.158 75.318 202.366 72.8817C202.308 72.6917 202.262 72.5314 202.221 72.3844C200.824 68.6138 198.386 65.3597 195.215 63.0349C192.044 60.7096 188.283 59.4182 184.407 59.3238Z" fill="white"/>
<path d="M126.986 54.0848V44.8057H111.195V115.686H126.986V71.4548L147.643 62.1711V44.8057L126.986 54.0848Z" fill="white"/>
<path d="M11.6504 98.9295L0 116.157H15.9153L36.7419 85.4278L53.9045 116.157H69.364C69.364 116.157 68.7674 115.063 45.2093 72.8507C79.0709 73.2833 93.4025 24.0603 103.711 0C24.4531 8.23764 32.3279 57.4818 32.3279 57.4818L67.669 31.3385L66.8068 32.2029C46.3942 52.5317 27.9222 74.8788 11.6504 98.9295Z" fill="white"/>
</g>
<defs>
<clipPath id="clip0_4448_1911">
<rect width="453" height="138" fill="white"/>
</clipPath>
</defs>
</svg>
